<svg width="406" height="399" viewBox="0 0 406 399" fill="none" xmlns="http://www.w3.org/2000/svg">
<g opacity="0.2" clip-path="url(#clip0_10_203)">
<path d="M267.149 233.492C256.409 250.917 241.613 265.843 223.192 277.572C219.422 280.057 213.697 278.452 210.501 274.558L185.697 245.805C156.505 211.461 118.054 184.876 74.4002 168.548L61.3276 164.338C57.6539 163.035 55.269 159.642 54.5545 155.354C54.6509 151.566 56.3693 148.778 60.5208 147.49L87.4814 140.063C148.846 124.025 219.891 132.228 281.672 164.538C284.916 166.537 287.301 169.931 287.205 173.719C284.574 196.143 277.889 216.067 267.149 233.492Z" fill="white"/>
<path d="M269.893 141.888C275.999 144.691 282.106 147.493 288.213 150.295C299.185 156.096 305.91 166.974 304.81 177.838C302.561 201.458 295.828 223.277 283.369 243.49C270.91 263.703 254.445 279.522 234.354 292.146C223.043 299.602 206.249 295.982 196.661 284.302L186.263 272.122C182.677 299.728 188.35 319.575 203.759 329.073C235.388 348.568 283.352 308.882 312.565 261.486C341.779 214.089 355.68 153.408 324.05 133.912C309.452 124.914 290.843 127.871 269.893 141.888Z" fill="white"/>
<path d="M354.738 287.48C358.534 281.321 358.707 274.537 355.124 272.329C351.54 270.12 345.558 273.323 341.762 279.482C337.965 285.641 337.793 292.424 341.376 294.633C344.959 296.841 350.942 293.639 354.738 287.48Z" fill="white"/>
</g>
<defs>
<clipPath id="clip0_10_203">
<rect width="262.005" height="335.348" fill="white" transform="translate(0.524048 223.041) rotate(-58.3515)"/>
</clipPath>
</defs>
</svg>
