<svg width="241" height="76" viewBox="0 0 241 76" fill="none" xmlns="http://www.w3.org/2000/svg">
<g opacity="0.1">
<path d="M0 54.8657V6.26095C0 2.71857 2.49234 0 5.73995 0C8.98757 0 11.4799 2.71857 11.4799 6.26095V22.8195C14.2744 18.6181 18.0507 15.6524 24.0927 15.6524C33.5335 15.6524 42.521 23.7257 42.521 38.4719V38.6367C42.521 53.3829 33.6845 61.4562 24.0927 61.4562C17.9751 61.4562 14.1989 58.4081 11.4799 54.8657V54.9481C11.4799 58.3257 8.98757 61.1267 5.73995 61.1267C2.49234 61.1267 0 58.4081 0 54.8657ZM21.1472 50.829C26.5096 50.829 31.0411 46.0509 31.0411 38.6367V38.4719C31.0411 31.14 26.5096 26.2795 21.1472 26.2795C15.7849 26.2795 11.3289 31.14 11.3289 38.4719V38.6367C11.3289 45.9686 15.7849 50.829 21.1472 50.829ZM62.4447 61.4562C54.8166 61.4562 48.548 56.7605 48.548 47.9457V47.781C48.548 38.2248 55.2698 33.6938 64.8616 33.6938C69.0155 33.6938 71.8099 34.4352 74.7554 35.5062V34.7648C74.7554 29.4924 71.8099 26.6914 66.07 26.6914C62.8224 26.6914 60.33 27.1857 58.1398 27.9271C57.5356 28.1743 57.0069 28.2567 56.4782 28.2567C53.8348 28.2567 51.7201 26.0324 51.7201 23.149C51.7201 20.9248 53.004 19.03 54.8166 18.2886C58.4419 16.7233 62.2937 15.9819 67.7316 15.9819C74.0757 15.9819 78.4562 17.7119 81.4017 20.9248C84.4227 24.22 85.7822 29.0805 85.7822 35.0119V55.1129C85.7822 58.4905 83.2899 61.1267 80.1933 61.1267C76.8702 61.1267 74.6799 58.5729 74.6799 55.9367V55.8543C71.8855 59.2319 68.1092 61.4562 62.4447 61.4562ZM65.9189 52.8062C71.3568 52.8062 74.9065 49.6757 74.9065 45.0624V42.8381C72.8673 41.8495 70.375 41.1905 67.5805 41.1905C62.6713 41.1905 59.6503 43.3324 59.6503 47.2867V47.4514C59.6503 50.829 62.2182 52.8062 65.9189 52.8062ZM96.1897 54.8657V6.26095C96.1897 2.71857 98.682 0 101.93 0C105.177 0 107.67 2.71857 107.67 6.26095V54.8657C107.67 58.4081 105.177 61.1267 101.93 61.1267C98.682 61.1267 96.1897 58.4081 96.1897 54.8657ZM159.16 6.26095V54.8657C159.16 58.4081 156.668 61.1267 153.42 61.1267C150.173 61.1267 147.68 58.4081 147.68 54.8657V54.289C144.886 58.4905 141.109 61.4562 135.067 61.4562C125.627 61.4562 116.639 53.3829 116.639 38.6367V38.4719C116.639 23.7257 125.476 15.6524 135.067 15.6524C141.185 15.6524 144.961 18.7005 147.68 22.2429V6.26095C147.68 2.71857 150.173 0 153.42 0C156.668 0 159.16 2.71857 159.16 6.26095ZM138.013 26.2795C132.651 26.2795 128.119 31.0576 128.119 38.4719V38.6367C128.119 45.9686 132.651 50.829 138.013 50.829C143.375 50.829 147.831 45.9686 147.831 38.6367V38.4719C147.831 31.14 143.375 26.2795 138.013 26.2795ZM206.198 22.2429V54.8657C206.198 58.4081 203.705 61.1267 200.458 61.1267C197.21 61.1267 194.718 58.4081 194.718 54.8657V54.3714C192.074 58.0786 188.6 61.4562 182.86 61.4562C174.099 61.4562 169.114 55.2776 169.114 45.0624V22.2429C169.114 18.7005 171.607 15.9819 174.854 15.9819C178.102 15.9819 180.594 18.7005 180.594 22.2429V41.1081C180.594 47.0395 183.087 50.0876 187.543 50.0876C191.999 50.0876 194.718 47.0395 194.718 41.1081V22.2429C194.718 18.7005 197.21 15.9819 200.458 15.9819C203.705 15.9819 206.198 18.7005 206.198 22.2429Z" fill="white"/>
<path d="M221.442 75.4608C225.613 75.4608 228.994 73.6166 228.994 71.3417C228.994 69.0668 225.613 67.2227 221.442 67.2227C217.271 67.2227 213.889 69.0668 213.889 71.3417C213.889 73.6166 217.271 75.4608 221.442 75.4608Z" fill="white"/>
<path d="M216.004 23.5608V56.1836C216.004 59.726 218.496 62.4446 221.744 62.4446C224.991 62.4446 227.484 59.726 227.484 56.1836V54.2065C229.221 58.4903 231.864 62.4446 235.263 62.4446C238.812 62.4446 240.852 59.8908 240.852 56.3484C240.852 53.0531 238.888 51.076 236.547 50.4993C230.731 48.9341 227.484 44.156 227.484 35.2589V23.5608C227.484 20.0184 224.991 17.2998 221.744 17.2998C218.496 17.2998 216.004 20.0184 216.004 23.5608Z" fill="white"/>
</g>
</svg>
