<svg width="200" height="220" viewBox="0 0 200 220" fill="none" xmlns="http://www.w3.org/2000/svg">
<path d="M100 152.5C84.375 152.5 68.75 149.375 53.75 143.125C50.625 141.875 49.375 138.125 50.625 135L59.375 111.25C70 83.1249 71.875 52.5 65 22.5L62.5 13.75C61.875 11.25 63.125 8.74996 65.625 6.87496C68.125 5.62496 70.625 5.62496 73.125 7.49996L88.75 20C123.75 48.75 146.875 91.2499 150.625 136.875C150.625 139.375 149.375 141.875 146.875 143.125C131.25 149.375 115.625 152.5 100 152.5Z" fill="white"/>
<path d="M160.625 122.5C161.25 126.875 161.875 131.25 162.5 135.625C163.125 143.75 158.75 151.25 151.25 154.375C135 161.25 118.125 165 100 165C81.875 165 65 161.25 48.75 154.375C39.375 150.625 35 140 38.75 130.625L42.5 120.625C23.125 128.125 12.5 138.125 12.5 150C12.5 174.375 57.5 187.5 100 187.5C142.5 187.5 187.5 174.375 187.5 150C187.5 138.75 178.125 129.375 160.625 122.5Z" fill="white"/>
<ellipse cx="100" cy="215" rx="10" ry="5" fill="white"/>
</svg>
