<svg width="523" height="210" viewBox="0 0 523 210" fill="none" xmlns="http://www.w3.org/2000/svg">
<path d="M100 152.5C84.375 152.5 68.75 149.375 53.75 143.125C50.625 141.875 49.375 138.125 50.625 135L59.375 111.25C70 83.125 71.875 52.5 65 22.5L62.5 13.75C61.875 11.25 63.125 8.74999 65.625 6.87499C68.125 5.62499 70.625 5.62499 73.125 7.49999L88.75 20C123.75 48.75 146.875 91.25 150.625 136.875C150.625 139.375 149.375 141.875 146.875 143.125C131.25 149.375 115.625 152.5 100 152.5Z" fill="white"/>
<path d="M160.625 122.5C161.25 126.875 161.875 131.25 162.5 135.625C163.125 143.75 158.75 151.25 151.25 154.375C135 161.25 118.125 165 100 165C81.875 165 65 161.25 48.75 154.375C39.375 150.625 35 140 38.75 130.625L42.5 120.625C23.125 128.125 12.5 138.125 12.5 150C12.5 174.375 57.5 187.5 100 187.5C142.5 187.5 187.5 174.375 187.5 150C187.5 138.75 178.125 129.375 160.625 122.5Z" fill="white"/>
<path d="M201.8 129V70C201.8 65.7 205.1 62.4 209.4 62.4C213.7 62.4 217 65.7 217 70V90.1C220.7 85 225.7 81.4 233.7 81.4C246.2 81.4 258.1 91.2 258.1 109.1V109.3C258.1 127.2 246.4 137 233.7 137C225.6 137 220.6 133.3 217 129V129.1C217 133.2 213.7 136.6 209.4 136.6C205.1 136.6 201.8 133.3 201.8 129ZM229.8 124.1C236.9 124.1 242.9 118.3 242.9 109.3V109.1C242.9 100.2 236.9 94.3 229.8 94.3C222.7 94.3 216.8 100.2 216.8 109.1V109.3C216.8 118.2 222.7 124.1 229.8 124.1ZM284.48 137C274.38 137 266.08 131.3 266.08 120.6V120.4C266.08 108.8 274.98 103.3 287.68 103.3C293.18 103.3 296.88 104.2 300.78 105.5V104.6C300.78 98.2 296.88 94.8 289.28 94.8C284.98 94.8 281.68 95.4 278.78 96.3C277.98 96.6 277.28 96.7 276.58 96.7C273.08 96.7 270.28 94 270.28 90.5C270.28 87.8 271.98 85.5 274.38 84.6C279.18 82.7 284.28 81.8 291.48 81.8C299.88 81.8 305.68 83.9 309.58 87.8C313.58 91.8 315.38 97.7 315.38 104.9V129.3C315.38 133.4 312.08 136.6 307.98 136.6C303.58 136.6 300.68 133.5 300.68 130.3V130.2C296.98 134.3 291.98 137 284.48 137ZM289.08 126.5C296.28 126.5 300.98 122.7 300.98 117.1V114.4C298.28 113.2 294.98 112.4 291.28 112.4C284.78 112.4 280.78 115 280.78 119.8V120C280.78 124.1 284.18 126.5 289.08 126.5ZM329.16 129V70C329.16 65.7 332.46 62.4 336.76 62.4C341.06 62.4 344.36 65.7 344.36 70V129C344.36 133.3 341.06 136.6 336.76 136.6C332.46 136.6 329.16 133.3 329.16 129ZM412.536 70V129C412.536 133.3 409.236 136.6 404.936 136.6C400.636 136.6 397.336 133.3 397.336 129V128.3C393.636 133.4 388.636 137 380.636 137C368.136 137 356.236 127.2 356.236 109.3V109.1C356.236 91.2 367.936 81.4 380.636 81.4C388.736 81.4 393.736 85.1 397.336 89.4V70C397.336 65.7 400.636 62.4 404.936 62.4C409.236 62.4 412.536 65.7 412.536 70ZM384.536 94.3C377.436 94.3 371.436 100.1 371.436 109.1V109.3C371.436 118.2 377.436 124.1 384.536 124.1C391.636 124.1 397.536 118.2 397.536 109.3V109.1C397.536 100.2 391.636 94.3 384.536 94.3ZM474.816 89.4V129C474.816 133.3 471.516 136.6 467.216 136.6C462.916 136.6 459.616 133.3 459.616 129V128.4C456.116 132.9 451.516 137 443.916 137C432.316 137 425.716 129.5 425.716 117.1V89.4C425.716 85.1 429.016 81.8 433.316 81.8C437.616 81.8 440.916 85.1 440.916 89.4V112.3C440.916 119.5 444.216 123.2 450.116 123.2C456.016 123.2 459.616 119.5 459.616 112.3V89.4C459.616 85.1 462.916 81.8 467.216 81.8C471.516 81.8 474.816 85.1 474.816 89.4Z" fill="white"/>
<ellipse cx="495" cy="149" rx="10" ry="5" fill="white"/>
<ellipse cx="100" cy="205" rx="10" ry="5" fill="white"/>
<path d="M487.8 91V130.6C487.8 134.9 491.1 138.2 495.4 138.2C499.7 138.2 503 134.9 503 130.6V128.2C505.3 133.4 508.8 138.2 513.3 138.2C518 138.2 520.7 135.1 520.7 130.8C520.7 126.8 518.1 124.4 515 123.7C507.3 121.8 503 116 503 105.2V91C503 86.7 499.7 83.4 495.4 83.4C491.1 83.4 487.8 86.7 487.8 91Z" fill="white"/>
</svg>
